<?xml version="1.0" encoding="UTF-8" standalone="no"?>
<svg
   xmlns:dc="http://purl.org/dc/elements/1.1/"
   xmlns:cc="http://creativecommons.org/ns#"
   xmlns:rdf="http://www.w3.org/1999/02/22-rdf-syntax-ns#"
   xmlns:svg="http://www.w3.org/2000/svg"
   xmlns="http://www.w3.org/2000/svg"
   xmlns:sodipodi="http://sodipodi.sourceforge.net/DTD/sodipodi-0.dtd"
   xmlns:inkscape="http://www.inkscape.org/namespaces/inkscape"
   width="64"
   height="64"
   viewBox="0 0 210 297"
   version="1.1"
   id="svg2047"
   inkscape:version="1.0.2 (e86c870879, 2021-01-15)"
   sodipodi:docname="calories-thin-symbolic.svg">
  <defs
     id="defs2041">
    <rect
       x="61.364518"
       y="152.82368"
       width="76.215263"
       height="36.64242"
       id="rect2075" />
    <rect
       x="38.869813"
       y="170.93263"
       width="67.066735"
       height="10.824598"
       id="rect2069" />
    <rect
       x="39.265137"
       y="147.99632"
       width="40.539141"
       height="38.632978"
       id="rect2063" />
  </defs>
  <sodipodi:namedview
     id="base"
     pagecolor="#ffffff"
     bordercolor="#666666"
     borderopacity="1.0"
     inkscape:pageopacity="0.0"
     inkscape:pageshadow="2"
     inkscape:zoom="13.074572"
     inkscape:cx="36.701857"
     inkscape:cy="31.855013"
     inkscape:document-units="mm"
     inkscape:current-layer="layer1"
     inkscape:document-rotation="0"
     showgrid="false"
     inkscape:window-width="1920"
     inkscape:window-height="1023"
     inkscape:window-x="0"
     inkscape:window-y="25"
     inkscape:window-maximized="1"
     inkscape:pagecheckerboard="true" />
  <metadata
     id="metadata2044">
    <rdf:RDF>
      <cc:Work
         rdf:about="">
        <dc:format>image/svg+xml</dc:format>
        <dc:type
           rdf:resource="http://purl.org/dc/dcmitype/StillImage" />
        <dc:title></dc:title>
      </cc:Work>
    </rdf:RDF>
  </metadata>
  <g
     inkscape:label="Layer 1"
     inkscape:groupmode="layer"
     id="layer1">
    <path
       style="color:#000000;font-style:normal;font-variant:normal;font-weight:normal;font-stretch:normal;font-size:medium;line-height:normal;font-family:sans-serif;font-variant-ligatures:normal;font-variant-position:normal;font-variant-caps:normal;font-variant-numeric:normal;font-variant-alternates:normal;font-variant-east-asian:normal;font-feature-settings:normal;font-variation-settings:normal;text-indent:0;text-align:start;text-decoration:none;text-decoration-line:none;text-decoration-style:solid;text-decoration-color:#000000;letter-spacing:normal;word-spacing:normal;text-transform:none;writing-mode:lr-tb;direction:ltr;text-orientation:mixed;dominant-baseline:auto;baseline-shift:baseline;text-anchor:start;white-space:normal;shape-padding:0;shape-margin:0;inline-size:0;clip-rule:nonzero;display:inline;overflow:visible;visibility:visible;isolation:auto;mix-blend-mode:multiply;color-interpolation:sRGB;color-interpolation-filters:linearRGB;solid-color:#000000;solid-opacity:1;vector-effect:none;fill:#75757a;fill-opacity:1;fill-rule:nonzero;stroke:none;stroke-linecap:butt;stroke-linejoin:miter;stroke-miterlimit:4;stroke-dasharray:none;stroke-dashoffset:0;stroke-opacity:1;color-rendering:auto;image-rendering:auto;shape-rendering:auto;text-rendering:auto;enable-background:accumulate;stop-color:#000000;stop-opacity:1;opacity:1;stroke-width:4.640625"
       d="M 133.1543 23.759766 L 124.93555 27.712891 L 124.89844 27.712891 L 123.98828 28.169922 L 123.91602 28.205078 C 114.61513 32.872998 106.72628 39.82919 99.978516 47.289062 L 99.964844 47.302734 L 99.953125 47.318359 C 88.317171 60.410494 79.242389 76.287795 75.431641 93.818359 L 75.431641 93.822266 L 75.431641 93.824219 C 74.03657 100.2701 73.626705 106.98858 74.058594 113.66797 C 73.740944 113.34411 73.522051 113.10598 72.259766 111.9375 C 66.249506 105.57589 63.208217 96.440629 62.804688 87.271484 C 62.714019 85.223827 62.703 83.196633 62.800781 81.201172 L 63.53125 66.298828 L 54.476562 78.158203 C 43.681659 92.299084 35.094756 107.87066 28.113281 124.04492 L 28.109375 124.05273 L 28.105469 124.06055 C 21.348009 139.87101 16.110685 156.55591 13.744141 173.83789 L 13.744141 173.8418 L 13.744141 173.84375 C 11.808717 188.11726 12.063375 202.90619 15.996094 217.1543 L 15.998047 217.16016 L 16 217.16602 C 18.874399 227.48008 23.69447 237.07209 30.644531 245.32812 C 30.645125 245.32883 30.64589 245.32937 30.646484 245.33008 C 30.648596 245.33259 30.650232 245.33538 30.652344 245.33789 C 41.876832 258.73166 57.649229 267.19674 74.101562 271.22656 C 88.127806 274.66559 102.78336 275.2294 117.00586 272.78516 L 117.00781 272.7832 C 134.1343 269.83297 150.76463 262.61323 164.04688 250.72656 L 164.05469 250.71875 C 174.13547 241.73841 181.84264 229.95572 185.80273 217.01758 L 185.80469 217.00977 C 190.97354 200.35149 190.21288 182.50116 185.51562 166.2207 C 180.64076 149.16084 171.83855 133.62815 161.92188 119.52148 L 161.91602 119.51367 C 157.55631 113.28561 152.95361 107.33959 148.43555 101.4375 C 139.01989 88.646871 131.80888 74.053465 129.80859 58.597656 L 129.80859 58.59375 L 129.80664 58.587891 C 128.69583 50.146178 129.16083 41.473496 131.04297 33.125 L 133.1543 23.759766 z M 120.41406 41.267578 C 119.80063 47.419864 119.79514 53.640678 120.60547 59.798828 C 122.87465 77.314964 130.89515 93.265665 140.96094 106.93945 L 140.98633 106.97461 L 141.01367 107.00781 C 145.57077 112.96143 150.11009 118.83149 154.31836 124.84375 L 154.32031 124.84766 L 154.32422 124.85156 C 163.8845 138.45017 172.12266 153.1269 176.59375 168.7793 L 176.5957 168.78516 L 176.59766 168.79102 C 180.86705 183.58749 181.47456 199.65724 176.93945 214.26758 L 176.93555 214.27539 L 176.93359 214.28516 C 173.50278 225.50467 166.69574 235.93963 157.87305 243.79688 L 157.86914 243.80078 L 157.86523 243.80469 C 146.06358 254.36914 131.05176 260.94598 115.43164 263.63672 C 102.49488 265.85972 89.110274 265.34924 76.310547 262.21094 C 61.446854 258.57024 47.462849 250.95176 37.759766 239.36914 L 37.755859 239.36328 L 37.751953 239.35938 C 31.717135 232.19317 27.49956 223.85191 24.943359 214.68555 C 21.422552 201.92978 21.135616 188.40927 22.941406 175.0918 C 25.166584 158.84722 30.128189 142.95097 36.634766 127.72461 L 36.640625 127.70898 C 41.640826 116.12685 47.473285 104.94954 54.324219 94.472656 C 55.760228 103.16028 59.219399 111.66862 65.537109 118.3418 L 65.640625 118.45312 L 65.753906 118.55664 C 66.767432 119.49532 68.819919 123.00157 73.595703 123.72461 C 76.446343 124.19747 79.19007 122.9395 80.804688 121.22656 C 82.43428 119.49773 83.328764 117.34082 83.341797 114.91211 L 83.34375 114.69727 L 83.324219 114.48047 C 82.774658 108.22075 83.192447 101.8434 84.501953 95.791016 L 84.501953 95.787109 C 87.907421 80.124584 96.134354 65.591575 106.875 53.501953 C 111.01248 48.929165 115.55632 44.757411 120.41406 41.267578 z M 74.072266 114.85547 C 74.084153 115.00126 74.065331 115.14724 74.078125 115.29297 L 74.060547 114.86328 C 74.06126 114.73037 73.99316 114.92246 74.050781 114.86133 C 74.051926 114.86011 74.070701 114.85686 74.072266 114.85547 z "
       id="path2016" />
    <path
       style="display:inline;mix-blend-mode:multiply;fill:#000000;fill-opacity:1;fill-rule:evenodd;stroke:none;stroke-width:3.02844;stroke-linecap:butt;stroke-linejoin:miter;stroke-miterlimit:4;stroke-dasharray:none;stroke-dashoffset:0;stroke-opacity:1"
       d="m 181.3785,64.811276 v 0"
       id="path971" />
    <text
       xml:space="preserve"
       id="text2061"
       style="font-style:normal;font-variant:normal;font-weight:normal;font-stretch:normal;font-size:25.4px;line-height:1.25;font-family:'Noto Sans Elbasan';-inkscape-font-specification:'Noto Sans Elbasan';white-space:pre;shape-inside:url(#rect2063);fill:#000000;fill-opacity:1;stroke:none;" />
    <text
       xml:space="preserve"
       id="text2067"
       style="fill:black;fill-opacity:1;line-height:1.25;stroke:none;font-family:sans-serif;font-style:normal;font-weight:normal;font-size:10.58333333px;white-space:pre;shape-inside:url(#rect2069);" />
    <text
       xml:space="preserve"
       id="text2073"
       style="fill:black;fill-opacity:1;line-height:1.25;stroke:none;font-family:sans-serif;font-style:normal;font-weight:normal;font-size:10.58333333px;white-space:pre;shape-inside:url(#rect2075);" />
    <g
       aria-label="cal"
       id="text6567"
       style="font-style:normal;font-weight:normal;font-size:49.5px;line-height:1.25;font-family:sans-serif;fill:#75757a;fill-opacity:1;stroke:none;stroke-width:4.64062">
      <path
         d="m 88.89642,164.70781 v 7.05762 q -1.764405,-1.2085 -3.552979,-1.78858 -1.764404,-0.58008 -3.673828,-0.58008 -3.625488,0 -5.655762,2.12696 -2.006103,2.10278 -2.006103,5.89746 0,3.79468 2.006103,5.92163 2.030274,2.10278 5.655762,2.10278 2.030273,0 3.843017,-0.60425 1.836915,-0.60424 3.38379,-1.78857 v 7.08179 q -2.030274,0.74926 -4.133057,1.11181 -2.078613,0.38672 -4.181397,0.38672 -7.323486,0 -11.456543,-3.74634 -4.133056,-3.7705 -4.133056,-10.46557 0,-6.69507 4.133056,-10.44141 4.133057,-3.77051 11.456543,-3.77051 2.126954,0 4.181397,0.38672 2.078613,0.36255 4.133057,1.11182 z"
         style="font-style:normal;font-variant:normal;font-weight:bold;font-stretch:normal;font-size:49.5px;font-family:sans-serif;-inkscape-font-specification:'sans-serif Bold';fill:#75757a;fill-opacity:1;stroke-width:4.64062"
         id="path4520" />
      <path
         d="m 108.49823,178.75053 q -2.70704,0 -4.08472,0.91846 -1.35352,0.91846 -1.35352,2.70703 0,1.64356 1.08765,2.58618 1.11182,0.91846 3.06958,0.91846 2.44116,0 4.10889,-1.74023 1.66772,-1.76441 1.66772,-4.39893 v -0.99097 z m 13.22094,-3.26294 v 15.44458 h -8.72534 v -4.0122 q -1.74023,2.46533 -3.91553,3.60132 -2.17529,1.11181 -5.29321,1.11181 -4.205565,0 -6.840086,-2.44116 -2.610352,-2.46533 -2.610352,-6.38086 0,-4.76147 3.262939,-6.98511 3.287109,-2.22363 10.296389,-2.22363 h 5.09985 v -0.67676 q 0,-2.05444 -1.61938,-2.99707 -1.61939,-0.96679 -5.05152,-0.96679 -2.77954,0 -5.17236,0.5559 -2.392822,0.55591 -4.447266,1.66773 v -6.59839 q 2.779541,-0.67676 5.583256,-1.01514 2.80371,-0.36255 5.60742,-0.36255 7.32348,0 10.56225,2.90039 3.26294,2.87623 3.26294,9.37793 z"
         style="font-style:normal;font-variant:normal;font-weight:bold;font-stretch:normal;font-size:49.5px;font-family:sans-serif;-inkscape-font-specification:'sans-serif Bold';fill:#75757a;fill-opacity:1;stroke-width:4.64062"
         id="path4522" />
      <path
         d="m 129.76776,153.32378 h 8.65283 v 37.60839 h -8.65283 z"
         style="font-style:normal;font-variant:normal;font-weight:bold;font-stretch:normal;font-size:49.5px;font-family:sans-serif;-inkscape-font-specification:'sans-serif Bold';fill:#75757a;fill-opacity:1;stroke-width:4.64062"
         id="path4524" />
    </g>
  </g>
</svg>
