<?xml version="1.0" encoding="UTF-8" standalone="no"?>
<svg
   xmlns:dc="http://purl.org/dc/elements/1.1/"
   xmlns:cc="http://creativecommons.org/ns#"
   xmlns:rdf="http://www.w3.org/1999/02/22-rdf-syntax-ns#"
   xmlns:svg="http://www.w3.org/2000/svg"
   xmlns="http://www.w3.org/2000/svg"
   xmlns:sodipodi="http://sodipodi.sourceforge.net/DTD/sodipodi-0.dtd"
   xmlns:inkscape="http://www.inkscape.org/namespaces/inkscape"
   width="16"
   height="16"
   viewBox="0 0 210 297"
   version="1.1"
   id="svg901"
   inkscape:version="1.0.2 (e86c870879, 2021-01-15)"
   sodipodi:docname="calories-symbolic.svg">
  <defs
     id="defs895" />
  <sodipodi:namedview
     id="base"
     pagecolor="#ffffff"
     bordercolor="#666666"
     borderopacity="1.0"
     inkscape:pageopacity="0.0"
     inkscape:pageshadow="2"
     inkscape:zoom="39.043155"
     inkscape:cx="4.7691465"
     inkscape:cy="8.2265502"
     inkscape:document-units="mm"
     inkscape:current-layer="layer1"
     inkscape:document-rotation="0"
     showgrid="false"
     inkscape:window-width="1920"
     inkscape:window-height="1023"
     inkscape:window-x="0"
     inkscape:window-y="25"
     inkscape:window-maximized="1" />
  <metadata
     id="metadata898">
    <rdf:RDF>
      <cc:Work
         rdf:about="">
        <dc:format>image/svg+xml</dc:format>
        <dc:type
           rdf:resource="http://purl.org/dc/dcmitype/StillImage" />
        <dc:title></dc:title>
      </cc:Work>
    </rdf:RDF>
  </metadata>
  <g
     inkscape:label="Layer 1"
     inkscape:groupmode="layer"
     id="layer1">
    <g
       aria-label="cal"
       id="text6567"
       style="font-style:normal;font-weight:normal;font-size:49.5px;line-height:1.25;font-family:sans-serif;fill:#75757a;fill-opacity:1;stroke:none;stroke-width:5.62353376;stroke-miterlimit:4;stroke-dasharray:none"
       transform="matrix(3.6396833,0,0,2.993579,-87.824155,-87.278331)">
      <g
         aria-label="cal"
         id="text6567-2"
         style="font-style:normal;font-weight:normal;font-size:49.5px;line-height:1.25;font-family:sans-serif;fill:#363638;fill-opacity:1;stroke:none;stroke-width:19.04466723;stroke-miterlimit:4;stroke-dasharray:none"
         transform="matrix(0.26781144,0,0,0.32556875,26.067577,26.757966)">
        <path
           id="path4524-7"
           style="font-style:normal;font-variant:normal;font-weight:bold;font-stretch:normal;font-size:49.5px;font-family:sans-serif;-inkscape-font-specification:'sans-serif Bold';fill:#363638;fill-opacity:1;stroke-width:19.04466723;stroke-miterlimit:4;stroke-dasharray:none"
           d="m 129.76776,153.32378 h 8.65283 v 37.60839 h -8.65283 z m -21.26953,25.42675 q -2.70704,0 -4.08472,0.91846 -1.35352,0.91846 -1.35352,2.70703 0,1.64356 1.08765,2.58618 1.11182,0.91846 3.06958,0.91846 2.44116,0 4.10889,-1.74023 1.66772,-1.76441 1.66772,-4.39893 v -0.99097 z m 13.22094,-3.26294 v 15.44458 h -8.72534 v -4.0122 q -1.74023,2.46533 -3.91553,3.60132 -2.17529,1.11181 -5.29321,1.11181 -4.205565,0 -6.840086,-2.44116 -2.610352,-2.46533 -2.610352,-6.38086 0,-4.76147 3.262939,-6.98511 3.287109,-2.22363 10.296389,-2.22363 h 5.09985 v -0.67676 q 0,-2.05444 -1.61938,-2.99707 -1.61939,-0.96679 -5.05152,-0.96679 -2.77954,0 -5.17236,0.5559 -2.392822,0.55591 -4.447266,1.66773 v -6.59839 q 2.779541,-0.67676 5.583256,-1.01514 2.80371,-0.36255 5.60742,-0.36255 7.32348,0 10.56225,2.90039 3.26294,2.87623 3.26294,9.37793 z M 88.89642,164.70781 v 7.05762 q -1.764405,-1.2085 -3.552979,-1.78858 -1.764404,-0.58008 -3.673828,-0.58008 -3.625488,0 -5.655762,2.12696 -2.006103,2.10278 -2.006103,5.89746 0,3.79468 2.006103,5.92163 2.030274,2.10278 5.655762,2.10278 2.030273,0 3.843017,-0.60425 1.836915,-0.60424 3.38379,-1.78857 v 7.08179 q -2.030274,0.74926 -4.133057,1.11181 -2.078613,0.38672 -4.181397,0.38672 -7.323486,0 -11.456543,-3.74634 -4.133056,-3.7705 -4.133056,-10.46557 0,-6.69507 4.133056,-10.44141 4.133057,-3.77051 11.456543,-3.77051 2.126954,0 4.181397,0.38672 2.078613,0.36255 4.133057,1.11182 z M 181.3785,64.811273 v 0 m -48.2242,-41.051511 -8.21875,3.953125 h -0.037 l -0.91016,0.457034 -0.0723,0.03517 c -9.3009,4.667921 -17.18975,11.624114 -23.937511,19.083985 l -0.01344,0.01382 -0.01195,0.01566 C 88.31726,60.410703 79.24248,76.288001 75.431734,93.818571 v 0.0037 0.0018 c -1.395075,6.445869 -1.804938,13.164359 -1.373049,19.843739 -0.317655,-0.32386 -0.536544,-0.56198 -1.798828,-1.73047 -6.010262,-6.3616 -9.051552,-15.496872 -9.455078,-24.666014 -0.09067,-2.047657 -0.10169,-4.074851 -0.0041,-6.070309 L 63.531162,66.298642 54.476473,78.158014 C 43.681573,92.298905 35.094669,107.87048 28.113192,124.04474 l -0.0041,0.007 -0.0041,0.007 c -6.757323,15.8109 -11.994645,32.49581 -14.361192,49.77779 v 0.004 0.002 c -1.935421,14.2735 -1.680763,29.06244 2.251955,43.31054 l 0.002,0.006 0.002,0.006 c 2.8744,10.31406 7.694472,19.90607 14.644531,28.16212 5.93e-4,7.1e-4 0.0014,8e-4 0.002,0.002 0.0021,0.003 0.0037,0.006 0.006,0.006 11.224486,13.39376 26.996885,21.85882 43.449217,25.88866 14.026242,3.43903 28.681787,4.00285 42.904287,1.5586 l 0.002,-0.002 c 17.12649,-2.95022 33.75682,-10.16996 47.03908,-22.05663 l 0.008,-0.006 c 10.08079,-8.97977 17.78795,-20.76247 21.74805,-33.70062 l 0.002,-0.007 c 5.16883,-16.65806 4.40817,-34.50839 -0.28909,-50.78885 -4.87486,-17.05987 -13.67707,-32.59256 -23.59375,-46.69923 l -0.006,-0.007 c -4.35973,-6.22805 -8.96244,-12.17408 -13.4805,-18.07615 -9.41567,-12.79064 -16.62666,-27.384046 -18.62696,-42.839857 v -0.004 l -0.002,-0.0058 c -1.1111,-8.442088 -0.64609,-17.114766 1.23605,-25.463264 z M 74.072264,114.85546 c 0.01195,0.14584 -0.0067,0.29176 0.006,0.4375 l -0.01755,-0.42968 c 7.13e-4,-0.13281 -0.06737,0.0592 -0.0097,-0.002 0.0011,-10e-4 0.01979,-0.004 0.02129,-0.006 z m 127.939566,32.16453 v 0 m -23.29107,6.68915 v 0" />
      </g>
    </g>
  </g>
</svg>
