<?xml version="1.0" encoding="UTF-8" standalone="no"?>
<svg
   xmlns:osb="http://www.openswatchbook.org/uri/2009/osb"
   xmlns:dc="http://purl.org/dc/elements/1.1/"
   xmlns:cc="http://creativecommons.org/ns#"
   xmlns:rdf="http://www.w3.org/1999/02/22-rdf-syntax-ns#"
   xmlns:svg="http://www.w3.org/2000/svg"
   xmlns="http://www.w3.org/2000/svg"
   width="16"
   viewBox="0 0 16 16.006601"
   version="1.1"
   id="svg7384"
   height="16.006601">
  <metadata
     id="metadata90">
    <rdf:RDF>
      <cc:Work
         rdf:about="">
        <dc:format>image/svg+xml</dc:format>
        <dc:type
           rdf:resource="http://purl.org/dc/dcmitype/StillImage" />
        <dc:title>Gnome Symbolic Icon Theme</dc:title>
      </cc:Work>
    </rdf:RDF>
  </metadata>
  <title
     id="title9167">Gnome Symbolic Icon Theme</title>
  <defs
     id="defs7386">
    <linearGradient
       osb:paint="solid"
       id="linearGradient7212">
      <stop
         style="stop-color:#000000;stop-opacity:1;"
         offset="0"
         id="stop7214" />
    </linearGradient>
  </defs>
  <g
     transform="translate(-380,99.999998)"
     style="display:inline"
     id="layer1" />
  <g
     transform="translate(-621.0002,467)"
     style="display:inline"
     id="layer9" />
  <g
     transform="translate(-621.0002,467)"
     style="display:inline"
     id="g7628" />
  <g
     transform="translate(-380,-100)"
     id="layer13">
    <path
       style="color:#000000;display:inline;overflow:visible;visibility:visible;fill:#2e3436;fill-opacity:1;fill-rule:nonzero;stroke:none;stroke-width:1.93522692;marker:none;enable-background:accumulate"
       id="rect7046"
       d="m 385.737,105.02981 -1.69369,1.93565 -1.0019,2.78898 c -0.25504,0.49459 0.0164,1.18473 0.54428,1.3607 0.52792,0.17598 1.17727,-0.20725 1.26999,-0.75594 l 0.88095,-2.39588 L 386,107.66094 v 5.32187 l -1.5636,1.69332 1.45142,1.33047 2.14457,-2.26784 v -2.05618 l 2.02594,3.96117 1.72356,-0.8769 L 389,109.26355 v -1.69333 l 2.26784,2.02594 c 0.37082,0.38395 1.07286,0.36669 1.42436,-0.035 0.35149,-0.40172 0.27541,-1.09984 -0.15436,-1.41641 L 389,105 Z" />
    <path
       id="path6214"
       d="m 390.05327,101.97997 a 1.9352268,1.9352269 0 0 1 -1.93523,1.93523 1.9352268,1.9352269 0 0 1 -1.93522,-1.93523 1.9352268,1.9352269 0 0 1 1.93522,-1.93522 1.9352268,1.9352269 0 0 1 1.93523,1.93522 z"
       style="color:#000000;display:inline;overflow:visible;visibility:visible;fill:#2e3436;fill-opacity:1;fill-rule:nonzero;stroke:none;stroke-width:0.78545624;marker:none;enable-background:accumulate" />
  </g>
  <g
     transform="translate(-380,99.999998)"
     style="display:inline"
     id="g6387" />
  <g
     transform="translate(-380,99.999998)"
     style="display:inline"
     id="layer10" />
  <g
     transform="translate(-380,99.999998)"
     id="layer12" />
  <g
     transform="translate(-380,99.999998)"
     style="display:inline"
     id="layer11" />
</svg>
