<svg id="Layer_1" data-name="Layer 1" xmlns="http://www.w3.org/2000/svg" viewBox="0 0 16 16"><defs><style>.cls-1{fill:#303436;}</style></defs><path class="cls-1" d="M5.55,5C3.39,5,2.94,9,3.44,11.5H6C6.52,9,7.29,5,5.55,5Z"/><path class="cls-1" d="M4.73,14.62h0a1.22,1.22,0,0,1-1.29-1.28V12.06H6v1.28A1.22,1.22,0,0,1,4.73,14.62Z"/><path class="cls-1" d="M10.45,1.38c2.16,0,2.61,3.92,2.11,6.47H10C9.48,5.3,8.71,1.38,10.45,1.38Z"/><path class="cls-1" d="M11.27,11h0a1.22,1.22,0,0,0,1.29-1.28V8.41H10V9.69A1.22,1.22,0,0,0,11.27,11Z"/></svg>