<svg xmlns="http://www.w3.org/2000/svg" viewBox="0 0 16 16"><defs><style>.cls-1{fill:#303436;}</style></defs><g id="Layer_2" data-name="Layer 2"><path class="cls-1" d="M8.17,4.31A20.47,20.47,0,0,1,14,5.14l-1.75,6a17.62,17.62,0,0,0-4-.51,20.78,20.78,0,0,0-4.17.51l-1.75-6a20.45,20.45,0,0,1,5.81-.83m0-1.17a23,23,0,0,0-3.12.22A19.9,19.9,0,0,0,2,4L.91,4.36l.33,1.11L3,11.5l.3,1,1-.22a19.58,19.58,0,0,1,3.94-.48,16.65,16.65,0,0,1,3.71.48l1.06.23.31-1.05,1.75-6,.32-1.11L14.33,4a19.9,19.9,0,0,0-3-.67,23.18,23.18,0,0,0-3.13-.22Z"/><rect class="cls-1" x="7.95" y="4.94" width="0.59" height="2.2"/><rect class="cls-1" x="9.2" y="5.87" width="2.2" height="0.59" transform="translate(2.92 15.63) rotate(-83)"/><rect class="cls-1" x="11.22" y="6.24" width="2.2" height="0.59" transform="translate(2.99 16.91) rotate(-76)"/><rect class="cls-1" x="5.9" y="5.07" width="0.59" height="2.2" transform="translate(-0.71 0.8) rotate(-7)"/><rect class="cls-1" x="3.87" y="5.45" width="0.59" height="2.2" transform="translate(-1.46 1.2) rotate(-14)"/><polygon class="cls-1" points="8.26 7.61 7.62 9.87 8.9 9.87 8.26 7.61"/></g></svg>